<svg width="24" height="21" viewBox="0 0 24 21" fill="none" xmlns="http://www.w3.org/2000/svg">
<path d="M18.7183 2.94866H15.0993C14.8498 2.94866 14.6475 2.7464 14.6475 2.49688C14.6475 2.24737 14.8498 2.0451 15.0993 2.0451H18.7183C18.9678 2.0451 19.17 2.24737 19.17 2.49688C19.17 2.7464 18.9678 2.94866 18.7183 2.94866ZM12.8403 2.94866H11.8018C11.5522 2.94866 11.35 2.7464 11.35 2.49688C11.35 2.24737 11.5522 2.0451 11.8018 2.0451H12.8403C13.0898 2.0451 13.2921 2.24737 13.2921 2.49688C13.2921 2.7464 13.0898 2.94866 12.8403 2.94866ZM18.7183 4.9938H11.8018C11.5522 4.9938 11.35 4.79154 11.35 4.54203C11.35 4.29251 11.5522 4.09025 11.8018 4.09025H18.7183C18.9678 4.09025 19.17 4.29251 19.17 4.54203C19.17 4.79154 18.9678 4.9938 18.7183 4.9938ZM18.7183 7.03764H17.6797C17.4302 7.03764 17.2279 6.83538 17.2279 6.58586C17.2279 6.33635 17.4302 6.13409 17.6797 6.13409H18.7183C18.9678 6.13409 19.17 6.33635 19.17 6.58586C19.17 6.83538 18.9678 7.03764 18.7183 7.03764ZM15.4207 7.03764H11.8018C11.5522 7.03764 11.35 6.83538 11.35 6.58586C11.35 6.33635 11.5522 6.13409 11.8018 6.13409H15.4207C15.6702 6.13409 15.8725 6.33635 15.8725 6.58586C15.8725 6.83538 15.6702 7.03764 15.4207 7.03764ZM7.75122 11.2052C6.81293 11.2052 6.04956 12.1254 6.04956 13.2565C6.04956 14.3875 6.81288 15.3077 7.75122 15.3077C8.68879 15.3077 9.45157 14.3875 9.45157 13.2565C9.45157 12.1255 8.68879 11.2052 7.75122 11.2052ZM7.75122 14.4042C7.3186 14.4042 6.95311 13.8786 6.95311 13.2565C6.95311 12.6343 7.3186 12.1088 7.75122 12.1088C8.18316 12.1088 8.54802 12.6344 8.54802 13.2565C8.54802 13.8786 8.18312 14.4042 7.75122 14.4042ZM12.5718 16.9405C12.3029 17.2099 11.9455 17.3582 11.5655 17.3582C11.1854 17.3582 10.8281 17.2099 10.5591 16.9405C10.3829 16.7639 10.0968 16.7636 9.92024 16.9399C9.74364 17.1162 9.74342 17.4022 9.9197 17.5788C10.3593 18.0192 10.9438 18.2618 11.5655 18.2618C12.1872 18.2618 12.7716 18.0192 13.2113 17.5788C13.3875 17.4022 13.3873 17.1162 13.2107 16.9399C13.0342 16.7637 12.7481 16.7639 12.5718 16.9405Z" fill="#515968"/>
<path d="M20.7391 10.4458H19.8455C19.5354 9.94637 19.163 9.48833 18.7374 9.08273H19.9374C20.7754 9.08273 21.4572 8.40096 21.4572 7.56296V1.51977C21.4572 0.681775 20.7754 0 19.9374 0H10.5826C9.74463 0 9.06281 0.681775 9.06281 1.51977V7.15993C6.62412 7.1981 4.48794 8.50396 3.28482 10.4458H2.84239V4.79032C3.66842 4.58715 4.28306 3.84059 4.28306 2.95276C4.28306 1.90997 3.43409 1.06158 2.39062 1.06158C1.34783 1.06158 0.499439 1.90997 0.499439 2.95276C0.499439 3.84046 1.11354 4.58697 1.93884 4.79023V10.4892C0.835967 10.7011 0 11.6728 0 12.8365V15.3221C0 16.6403 1.07243 17.7127 2.39062 17.7127H3.28428C4.50534 19.6839 6.68805 21 9.17273 21H13.9583C15.7997 21 17.5357 20.2782 18.8466 18.9676C19.226 18.5888 19.5607 18.1677 19.8443 17.7127H20.7391C22.058 17.7127 23.131 16.6403 23.131 15.3221V12.8365C23.1309 11.5183 22.058 10.4458 20.7391 10.4458ZM1.40299 2.95276C1.40299 2.40819 1.84605 1.96514 2.39062 1.96514C2.93591 1.96514 3.37951 2.40819 3.37951 2.95276C3.37951 3.49806 2.93591 3.94166 2.39062 3.94166C1.846 3.9417 1.40299 3.49806 1.40299 2.95276ZM2.8128 16.8091H2.39057C1.5706 16.8091 0.903507 16.1421 0.903507 15.3221V12.8365C0.903507 12.0165 1.5706 11.3494 2.39057 11.3494H2.8133C2.45197 12.1876 2.25125 13.1107 2.25125 14.0799C2.25129 15.0486 2.45174 15.9713 2.8128 16.8091ZM9.96636 1.51977C9.96636 1.17999 10.2428 0.903552 10.5826 0.903552H19.9374C20.2772 0.903552 20.5536 1.17999 20.5536 1.51977V7.56296C20.5536 7.90274 20.2772 8.17918 19.9374 8.17918H15.1275C15.05 8.17918 14.9739 8.19908 14.9063 8.23697C14.8388 8.27487 14.7822 8.32949 14.7418 8.39558C13.8527 9.85229 13.0917 10.1307 11.9044 10.4505C12.1013 9.94048 12.2081 9.42568 12.1945 8.62332C12.1904 8.37683 11.9893 8.17918 11.7428 8.17918H10.5826C10.2428 8.17918 9.96632 7.90274 9.96632 7.56296V1.51977H9.96636ZM13.9583 20.0964H9.17268C5.85443 20.0964 3.15484 17.3974 3.15484 14.0799C3.15484 10.7701 5.84083 8.07604 9.14756 8.0624C9.3547 8.65572 9.91956 9.08269 10.5826 9.08269H11.2835C11.2416 9.80467 11.0476 10.2041 10.6897 10.941C10.6563 11.0099 10.6409 11.0861 10.6451 11.1626C10.6492 11.239 10.6726 11.3132 10.7133 11.3781C10.7539 11.4429 10.8103 11.4965 10.8773 11.5336C10.9443 11.5706 11.0196 11.5901 11.0962 11.5901C11.138 11.5901 11.1801 11.5844 11.2215 11.5723C11.4554 11.5048 11.6775 11.4458 11.8922 11.3888C13.2242 11.0354 14.2874 10.7533 15.3766 9.08264H17.2988C18.9774 10.2106 19.9761 12.0687 19.9761 14.0798C19.9761 17.3974 17.2765 20.0964 13.9583 20.0964ZM22.2274 15.3221C22.2274 16.1421 21.5598 16.8091 20.7391 16.8091H20.3175C20.6858 15.9571 20.8796 15.0327 20.8796 14.0799C20.8796 13.124 20.6837 12.1982 20.3178 11.3494H20.739C21.5597 11.3494 22.2273 12.0165 22.2273 12.8365V15.3221H22.2274Z" fill="#515968"/>
<path d="M15.3798 11.2052C14.4415 11.2052 13.6781 12.1254 13.6781 13.2564C13.6781 14.3875 14.4414 15.3077 15.3798 15.3077C16.3173 15.3077 17.0801 14.3875 17.0801 13.2564C17.0801 12.1254 16.3174 11.2052 15.3798 11.2052ZM15.3798 14.4041C14.9471 14.4041 14.5817 13.8786 14.5817 13.2564C14.5817 12.6343 14.9471 12.1088 15.3798 12.1088C15.8117 12.1088 16.1766 12.6343 16.1766 13.2564C16.1766 13.8785 15.8117 14.4041 15.3798 14.4041Z" fill="#515968"/>
</svg>
