<svg width="16" height="15" viewBox="0 0 16 15" fill="none" xmlns="http://www.w3.org/2000/svg">
<path d="M15.3795 11.3139C15.3538 10.746 15.0073 10.2024 14.3203 9.6518C13.5119 9.0039 12.8779 8.70212 12.325 8.70212C11.6346 8.70212 11.1965 9.1516 10.7327 9.6276C10.6854 9.6762 10.6373 9.7255 10.588 9.7755C10.5596 9.8042 10.514 9.8373 10.4133 9.8373C10.1205 9.8373 9.36383 9.5728 7.58664 7.80215C6.81605 7.03379 6.25269 6.37977 5.91226 5.85824C5.57394 5.33989 5.45696 4.94465 5.59954 4.80067C5.64849 4.75119 5.69707 4.70276 5.74487 4.65517C6.16546 4.23602 6.56271 3.84014 6.64107 3.26266C6.72426 2.6494 6.4319 1.96796 5.69334 1.05332C5.12227 0.34455 4.56049 0 3.97581 0C3.18242 0 2.56925 0.65296 2.07663 1.17758C1.98986 1.27009 1.90786 1.35738 1.82812 1.43817C1.23356 2.03882 1.23195 3.32756 1.82375 4.88552C2.46478 6.57314 3.72385 8.4059 5.36899 10.0461C8.29683 12.9645 11.0854 14 12.5838 14C13.1893 14 13.6671 13.8404 13.9654 13.5386C14.0459 13.457 14.1327 13.3735 14.2245 13.285C14.7556 12.7735 15.4167 12.137 15.3795 11.3139Z" fill="#848B97"/>
<path d="M13.3652 1.16386L0.526139 13.0392C0.235561 13.308 0.253511 13.7226 0.566232 13.9652L0.566235 13.9652C0.878956 14.2079 1.36803 14.1867 1.65861 13.9179L14.4977 2.04256C14.7882 1.7738 14.7703 1.35921 14.4576 1.11656C14.1448 0.873915 13.6558 0.89509 13.3652 1.16386Z" fill="#848B97"/>
<path d="M0.526139 13.0392L13.3652 1.16386C13.6558 0.89509 14.1448 0.873915 14.4576 1.11656L14.4576 1.11657C14.7703 1.35921 14.7882 1.7738 14.4977 2.04256L1.65861 13.9179C1.36803 14.1867 0.878956 14.2079 0.566235 13.9652L0.566232 13.9652C0.253511 13.7226 0.235561 13.308 0.526139 13.0392Z" stroke="white" stroke-width="0.5"/>
</svg>
