<svg width="24" height="18" viewBox="0 0 24 18" fill="none" xmlns="http://www.w3.org/2000/svg">
<path d="M23.9153 7.39881L20.7063 0.953824C20.5694 0.679043 20.2889 0.505371 19.982 0.505371H4.01798C3.71109 0.505371 3.43064 0.679043 3.29367 0.953824L0.0846562 7.39881C0.028875 7.5107 0 7.63422 0 7.75933V16.6852C0 17.132 0.362156 17.4942 0.808969 17.4942H23.191C23.6378 17.4942 24 17.132 24 16.6852V7.75933C24 7.63422 23.9711 7.5107 23.9153 7.39881ZM4.51875 2.12336H19.481L21.898 6.97731H16.6652C16.2828 6.97731 15.9519 7.24834 15.8729 7.62236C15.844 7.75909 15.1289 10.9684 11.8652 10.9684C8.60147 10.9684 7.8863 7.75909 7.85798 7.62559C7.78167 7.24834 7.44998 6.97731 7.06519 6.97731H2.10202L4.51875 2.12336ZM22.382 15.8762H1.61798V8.5953H6.45117C7.01962 10.2519 8.63761 12.5864 11.8652 12.5864C15.093 12.5864 16.711 10.2519 17.2792 8.5953H22.382V15.8762Z" fill="#848B97"/>
</svg>
