<svg width="14" height="14" viewBox="0 0 14 14" fill="none" xmlns="http://www.w3.org/2000/svg">
<path d="M13.9985 11.3139C13.9728 10.746 13.6263 10.2024 12.9393 9.6518C12.1309 9.0039 11.4969 8.70212 10.944 8.70212C10.2536 8.70212 9.8155 9.1516 9.3517 9.6276C9.3044 9.6762 9.2563 9.7255 9.207 9.7755C9.1786 9.8042 9.133 9.8373 9.0323 9.8373C8.7395 9.8373 7.98278 9.5728 6.20559 7.80215C5.435 7.03379 4.87164 6.37977 4.53121 5.85824C4.19289 5.33989 4.07591 4.94465 4.21849 4.80067C4.26744 4.75119 4.31602 4.70276 4.36382 4.65517C4.78441 4.23602 5.18166 3.84014 5.26002 3.26266C5.34321 2.6494 5.05085 1.96796 4.31229 1.05332C3.74122 0.34455 3.17944 0 2.59476 0C1.80137 0 1.1882 0.65296 0.695581 1.17758C0.608811 1.27009 0.526811 1.35738 0.447071 1.43817C-0.147487 2.03882 -0.149095 3.32756 0.442701 4.88552C1.08373 6.57314 2.3428 8.4059 3.98794 10.0461C6.91578 12.9645 9.7044 14 11.2028 14C11.8083 14 12.2861 13.8404 12.5844 13.5386C12.6649 13.457 12.7517 13.3735 12.8435 13.285C13.3746 12.7735 14.0357 12.137 13.9985 11.3139Z" fill="#848B97"/>
</svg>
